<svg xmlns="http://www.w3.org/2000/svg" id="Layer_1" width="406" height="306" class="illustration styles_illustrationTablet__1DWOa" data-name="Layer 1" viewBox="0 0 400 300"><title>#140_user group_twocolour</title><rect width="68.92" height="108.91" x="27.59" y="92.89" fill="#e6e6e6"/><rect width="54.5" height="59.74" x="311.66" y="85.14" fill="#e6e6e6"/><ellipse cx="202.31" cy="250.82" fill="#e6e6e6" opacity=".45" rx="132.42" ry="15.63"/><rect width="66.34" height="17.46" x="256.82" y="231.86" fill="#e6e6e6"/><rect width="66.34" height="17.46" x="242.32" y="214.78" fill="#e6e6e6" opacity=".43"/><path fill="#68e1fd" d="M99.49,237s-9.8-2.68-11.93-11.8c0,0,15.18-3.06,15.61,12.61Z" opacity=".58"/><path fill="#68e1fd" d="M100.69,236.05s-6.85-10.82-.82-20.94c0,0,11.54,7.33,6.41,21Z" opacity=".73"/><path fill="#68e1fd" d="M102.45,236.06s3.62-11.43,14.56-13.6c0,0,2,7.42-7.08,13.63Z"/><polygon fill="#24285b" points="95.35 235.8 97.33 249.39 109.84 249.44 111.69 235.87 95.35 235.8"/><rect width="118.85" height="213.16" x="137.77" y="36.29" fill="#c9c9c9"/><rect width="98.38" height="150.01" x="147.6" y="60.58" fill="#fff"/><circle cx="197.55" cy="229.81" r="11.63" fill="#fff" opacity=".56"/><rect width="33.32" height="4.86" x="187.14" y="44.62" opacity=".12"/><circle cx="175.07" cy="47.58" r="5.43" fill="#fff"/><circle cx="172.67" cy="100.28" r="14.73" fill="#24285b"/><path fill="#f4a28c" d="M174.63,93.51a12.94,12.94,0,0,1,.24,3.49,1,1,0,0,1-1.19.9,2.34,2.34,0,0,1-2-1.52l-.84-1.75a1.92,1.92,0,0,1,.59-2.11A2,2,0,0,1,174.63,93.51Z"/><polygon fill="#f4a28c" points="170.98 94.94 170.7 101.83 174.51 101.71 173.18 96.75 170.98 94.94"/><path fill="#ffd200" d="M174.13,93.66a8.59,8.59,0,0,1-1.95.08,1.76,1.76,0,0,1,.23,1.91,1.43,1.43,0,0,1-1.65.77l-.28-2.69a2.14,2.14,0,0,1,.85-2,7.29,7.29,0,0,1,.85-.55c.73-.4,1.92,0,2.56-.62a.5.5,0,0,1,.83.23,2.29,2.29,0,0,1-.82,2.69A2.36,2.36,0,0,1,174.13,93.66Z"/><path fill="#f4a28c" d="M172.62,95.56s-.11-.8-.7-.67-.45,1.3.39,1.31Z"/><path fill="#f4a28c" d="M174.84,94.82l.67.74a.34.34,0,0,1-.14.55l-.79.24Z"/><path fill="#ce8172" d="M173.52,97.82a2.51,2.51,0,0,1-1.31-.58,4,4,0,0,0,1.72,2.32Z" opacity=".31"/><path fill="#68e1fd" d="M162.74,111.16s-.23-9.25,9.75-9.72,9.71,10.13,9.71,10.13S172.79,120.15,162.74,111.16Z"/><circle cx="171.51" cy="183.44" r="14.73" fill="#24285b"/><path fill="#f4a28c" d="M173.48,176.67a12.94,12.94,0,0,1,.24,3.49,1,1,0,0,1-1.19.9,2.33,2.33,0,0,1-2-1.52l-.84-1.75a1.9,1.9,0,0,1,.59-2.11A2,2,0,0,1,173.48,176.67Z"/><polygon fill="#f4a28c" points="169.82 178.1 169.55 184.99 173.36 184.87 172.03 179.91 169.82 178.1"/><path fill="#f4a28c" d="M173.68,178l.68.74a.34.34,0,0,1-.15.55l-.78.24Z"/><path fill="#ce8172" d="M172.36,181a2.49,2.49,0,0,1-1.3-.58,4,4,0,0,0,1.72,2.32Z" opacity=".31"/><path fill="#68e1fd" d="M161.59,194.32s-.23-9.24,9.75-9.72,9.71,10.13,9.71,10.13S171.64,203.31,161.59,194.32Z"/><path fill="#ffd200" d="M169.74,180.3l-1.15-2.15s-1.94.21-2-1.2,1.44-1.07,1.44-2-.19-2.34,1.3-2.31,1.9,1.24,2.59.46a1.06,1.06,0,0,1,1.85.71c.08.95,1.09.66.68,2s-2.53.64-2.53.64-1.92,0-1.68.85S172,180,169.74,180.3Z"/><path fill="#f4a28c" d="M171.12,178.51s-.35-.73-.88-.43,0,1.37.76,1.13Z"/><circle cx="172.09" cy="141.07" r="14.73" fill="#24285b"/><path fill="#f4a28c" d="M174.06,134.31a13.36,13.36,0,0,1,.24,3.48,1.06,1.06,0,0,1-1.19.91,2.32,2.32,0,0,1-2-1.53l-.84-1.75a1.88,1.88,0,0,1,.59-2.1A2,2,0,0,1,174.06,134.31Z"/><polygon fill="#f4a28c" points="170.4 135.74 170.13 142.63 173.93 142.51 172.6 137.54 170.4 135.74"/><path fill="#f4a28c" d="M172.05,136.36s-.11-.8-.71-.67-.44,1.29.39,1.31Z"/><path fill="#f4a28c" d="M174.26,135.62l.68.73a.34.34,0,0,1-.15.55l-.78.25Z"/><path fill="#ce8172" d="M172.94,138.62a2.5,2.5,0,0,1-1.31-.59,3.92,3.92,0,0,0,1.73,2.32Z" opacity=".31"/><path fill="#68e1fd" d="M162.16,152s-.22-9.25,9.75-9.73,9.72,10.14,9.72,10.14S172.21,161,162.16,152Z"/><path fill="#ffd200" d="M166.71,139.35a3.59,3.59,0,0,0-.35,3,2,2,0,0,0,2.07,1.53c2.63-.1,2.24-.87,2.59-4.64.32-3.54.61-4.59,2.69-5.12s.8-2.58-1-2.53-5,.14-4.91,3.44A8.16,8.16,0,0,1,166.71,139.35Z"/><rect width="20.14" height="4.13" x="195.51" y="89.08" fill="#e6e6e6"/><rect width="98.38" height="17.51" x="147.6" y="60.58" fill="#ffd200"/><rect width="51.67" height="4.99" x="182.2" y="66.85" fill="#fff"/><circle cx="158.89" cy="68.57" r="4.57" fill="#24285b"/><circle cx="163.46" cy="68.57" r="4.57" fill="#24285b" opacity=".74"/><circle cx="168.79" cy="68.57" r="4.57" fill="#24285b" opacity=".31"/><polygon fill="#ffd200" points="195.51 97.48 195.51 105.96 189.71 110.03 195.51 110.03 275.49 110.03 275.49 97.48 195.51 97.48"/><rect width="61.13" height="4.03" x="202.94" y="101.83" fill="#fff" opacity=".39"/><rect width="20.14" height="4.13" x="195.51" y="128.24" fill="#e6e6e6"/><polygon fill="#ffd200" points="195.51 136.63 195.51 145.11 189.71 149.19 195.51 149.19 275.49 149.19 275.49 136.63 195.51 136.63"/><rect width="61.13" height="4.03" x="202.94" y="140.99" fill="#fff" opacity=".39"/><rect width="20.14" height="4.13" x="195.51" y="172.24" fill="#e6e6e6"/><polygon fill="#ffd200" points="195.51 180.64 195.51 189.12 189.71 193.19 195.51 193.19 275.49 193.19 275.49 180.64 195.51 180.64"/><rect width="61.13" height="4.03" x="202.94" y="184.99" fill="#fff" opacity=".39"/><rect width="54.5" height="59.74" x="293.41" y="71.96" fill="#24285b"/><circle cx="305.85" cy="88.88" r="3.61" fill="#68e1fd"/><circle cx="305.85" cy="102.82" r="3.61" fill="#fff"/><circle cx="305.85" cy="116.76" r="3.61" fill="#ffd200"/><rect width="22" height="5.14" x="316.91" y="85.72" fill="#fff" opacity=".2"/><rect width="22" height="5.14" x="316.91" y="100.25" fill="#fff" opacity=".2"/><rect width="22" height="5.14" x="316.91" y="114.48" fill="#fff" opacity=".2"/><rect width="68.92" height="108.91" x="46.42" y="78.4" fill="#24285b"/><circle cx="68.41" cy="99.38" r="11.44" fill="#68e1fd"/><rect width="19.22" height="4.71" x="85.57" y="92.89" fill="#fff"/><rect width="19.22" height="4.71" x="85.57" y="101.15" fill="#fff" opacity=".21"/><rect width="68.92" height="65.72" x="46.42" y="121.59" fill="#fff" opacity=".11"/><rect width="30.92" height="6.26" x="70.3" y="134.78" fill="#fff"/><rect width="30.92" height="6.26" x="70.3" y="151.1" fill="#fff" opacity=".57"/><rect width="30.92" height="6.26" x="70.3" y="167.42" fill="#fff" opacity=".23"/><circle cx="62.05" cy="138.34" r="3.57" fill="#ffd200"/><circle cx="62.05" cy="154.23" r="3.57" fill="#ffd200" opacity=".36"/><circle cx="62.05" cy="170.56" r="3.57" fill="#ffd200" opacity=".36"/></svg>